Coordinates
version=1
nRows=34
nColumns=38
inDegrees=no

Units are S.I. units (second, meters, Newtons, ...)
If the header above contains a line with 'inDegrees', this indicates whether rotational values are in degrees (yes) or radians (no).

endheader
time	pelvis_tilt	pelvis_list	pelvis_rotation	pelvis_tx	pelvis_ty	pelvis_tz	hip_flexion_r	hip_adduction_r	hip_rotation_r	knee_angle_r	ankle_angle_r	subtalar_angle_r	mtp_angle_r	hip_flexion_l	hip_adduction_l	hip_rotation_l	knee_angle_l	ankle_angle_l	subtalar_angle_l	mtp_angle_l	lumbar_extension	lumbar_bending	lumbar_rotation	arm_flex_r	arm_add_r	arm_rot_r	elbow_flex_r	pro_sup_r	wrist_flex_r	wrist_dev_r	arm_flex_l	arm_add_l	arm_rot_l	elbow_flex_l	pro_sup_l	wrist_flex_l	wrist_dev_l
0	0.0761884	1.38106	1.49833	0.685422	-0.231686	1.02247	0.328311	-0.0107717	0.0536602	0.449487	-0.116502	0	0	0.184623	-0.029525	-0.0632765	0.271888	-0.217459	0	0	-0.223665	0.00442739	0.0302401	-0.19154	-0.288161	-0.0201746	1.17296	1.39807	0	0	-0.102692	-0.449729	0.301044	1.10311	1.5708	0	0
0.01	0.0791441	1.38241	1.49637	0.685167	-0.23124	1.02265	0.325362	-0.0108499	0.0524356	0.447745	-0.116513	0	0	0.182255	-0.0295204	-0.0612069	0.270944	-0.217656	0	0	-0.22479	0.00411175	0.0301652	-0.187098	-0.289542	-0.0172141	1.17094	1.39392	0	0	-0.0970826	-0.450124	0.303644	1.10234	1.5708	0	0
0.02	0.0824313	1.38426	1.49409	0.684866	-0.230783	1.02284	0.321867	-0.0110603	0.0505332	0.445873	-0.116653	0	0	0.179206	-0.0294776	-0.0597071	0.269721	-0.217457	0	0	-0.226693	0.00395436	0.0301457	-0.182996	-0.291193	-0.0148377	1.17061	1.38803	0	0	-0.0915568	-0.450718	0.305983	1.10301	1.5708	0	0
0.03	0.0860468	1.38623	1.49141	0.684541	-0.230359	1.023	0.318477	-0.0112633	0.0484038	0.444421	-0.116844	0	0	0.176072	-0.0295466	-0.0588556	0.26865	-0.21715	0	0	-0.228927	0.00403306	0.0302761	-0.179213	-0.293006	-0.0130836	1.17189	1.38155	0	0	-0.08637	-0.451219	0.307441	1.10496	1.5708	0	0
0.04	0.0894928	1.38793	1.48876	0.684203	-0.229991	1.0231	0.315736	-0.0114733	0.0463135	0.443665	-0.116885	0	0	0.173376	-0.0297209	-0.0589056	0.267668	-0.217174	0	0	-0.231002	0.00425529	0.030502	-0.175553	-0.295047	-0.011799	1.17426	1.37499	0	0	-0.0815133	-0.451957	0.308488	1.10797	1.5708	0	0
0.05	0.091662	1.38921	1.48717	0.683895	-0.229689	1.02315	0.31385	-0.0117284	0.0450884	0.443621	-0.116461	0	0	0.171372	-0.0297693	-0.059515	0.266934	-0.21711	0	0	-0.232685	0.0041915	0.0308579	-0.171919	-0.297341	-0.0104174	1.17719	1.36944	0	0	-0.0767592	-0.453132	0.309409	1.11172	1.5708	0	0
0.06	0.0927337	1.38955	1.48674	0.683597	-0.229456	1.02311	0.313239	-0.0119839	0.0447717	0.443904	-0.116207	0	0	0.170902	-0.0297566	-0.0605194	0.267116	-0.216877	0	0	-0.233328	0.00396809	0.03095	-0.168085	-0.299641	-0.00895131	1.18003	1.36511	0	0	-0.072238	-0.454343	0.309739	1.11552	1.5708	0	0
0.07	0.0931448	1.3891	1.48735	0.683292	-0.229376	1.02302	0.313726	-0.0122775	0.0448817	0.444419	-0.116164	0	0	0.171994	-0.0297851	-0.0618763	0.268373	-0.216451	0	0	-0.23347	0.00353604	0.0302532	-0.163552	-0.301836	-0.007563	1.18282	1.35977	0	0	-0.0677932	-0.455614	0.309196	1.1198	1.5708	0	0
0.08	0.0947067	1.38854	1.48671	0.683048	-0.229368	1.02294	0.314428	-0.012326	0.0448282	0.444869	-0.116398	0	0	0.173245	-0.029969	-0.0616658	0.269793	-0.21582	0	0	-0.233851	0.0030326	0.0290309	-0.158111	-0.304084	-0.00559575	1.18546	1.35457	0	0	-0.0639322	-0.456934	0.307315	1.12472	1.5708	0	0
0.09	0.098087	1.38824	1.48405	0.682794	-0.229311	1.02291	0.314813	-0.0120974	0.0447287	0.445374	-0.116717	0	0	0.17385	-0.0302871	-0.0601964	0.270669	-0.215325	0	0	-0.234775	0.00281144	0.0271428	-0.151825	-0.306477	-0.00273146	1.188	1.35016	0	0	-0.0612233	-0.457438	0.302802	1.13001	1.5708	0	0
0.1	0.101163	1.38778	1.48173	0.682486	-0.229201	1.02286	0.315179	-0.0118869	0.0443786	0.445663	-0.11699	0	0	0.174531	-0.0305238	-0.0590395	0.271245	-0.21511	0	0	-0.235797	0.00262153	0.0235035	-0.143982	-0.308849	0.00192372	1.18974	1.34602	0	0	-0.0606895	-0.457045	0.294264	1.13645	1.5708	0	0
0.11	0.103086	1.3866	1.48073	0.682116	-0.229099	1.02278	0.316113	-0.0118773	0.0439446	0.445564	-0.11728	0	0	0.17607	-0.0306704	-0.0589149	0.27182	-0.215185	0	0	-0.23661	0.00252688	0.0171104	-0.133477	-0.311531	0.0099802	1.18995	1.3428	0	0	-0.0634548	-0.455419	0.279688	1.14457	1.5708	0	0
0.12	0.104398	1.38445	1.48042	0.681739	-0.22903	1.02267	0.318003	-0.0118384	0.0436066	0.445286	-0.117602	0	0	0.178651	-0.0308333	-0.058992	0.272145	-0.215468	0	0	-0.237211	0.00266517	0.00733645	-0.119613	-0.314533	0.0222342	1.18854	1.34075	0	0	-0.0712059	-0.450824	0.254631	1.15488	1.5708	0	0
0.13	0.0968189	1.40726	1.48906	0.682117	-0.230115	1.0238	0.294844	-0.01523	0.0419463	0.446797	-0.111363	0	0	0.154337	-0.0283855	-0.0621166	0.269759	-0.215564	0	0	-0.267304	-0.0133265	0.0151148	-0.113737	-0.315488	0.0174257	1.19386	1.31699	0	0	-0.122201	-0.0679005	-0.357753	1.19176	1.5708	0	0
0.14	0.097679	1.40662	1.48926	0.681782	-0.230198	1.02378	0.295206	-0.015377	0.0417703	0.446468	-0.111873	0	0	0.154887	-0.0281711	-0.0604938	0.268969	-0.216258	0	0	-0.267136	-0.0140112	0.0153884	-0.106737	-0.317484	0.0189361	1.19366	1.31251	0	0	-0.116134	-0.0733343	-0.347986	1.1953	1.5708	0	0
0.15	0.0984321	1.40578	1.48939	0.68149	-0.230295	1.02376	0.29569	-0.0154142	0.0417724	0.445659	-0.112709	0	0	0.155619	-0.0280367	-0.0591037	0.268124	-0.217117	0	0	-0.266744	-0.0148505	0.0156507	-0.0992755	-0.319414	0.0204603	1.19319	1.30735	0	0	-0.109815	-0.0789644	-0.338153	1.19838	1.5708	0	0
0.16	0.0992202	1.40486	1.48933	0.68122	-0.230342	1.02376	0.296075	-0.015416	0.0416174	0.444322	-0.113562	0	0	0.156252	-0.0279846	-0.0582361	0.267011	-0.218156	0	0	-0.266247	-0.0156771	0.0156639	-0.0912996	-0.321396	0.022294	1.19246	1.30205	0	0	-0.103215	-0.0846202	-0.328749	1.20074	1.5708	0	0
0.17	0.0997928	1.40399	1.48938	0.680931	-0.23038	1.02379	0.2964	-0.015496	0.0413823	0.442935	-0.114311	0	0	0.156705	-0.0278819	-0.0574984	0.265587	-0.219372	0	0	-0.265834	-0.0164309	0.0155306	-0.0826818	-0.323819	0.0250388	1.19133	1.29736	0	0	-0.0962011	-0.0902061	-0.319814	1.20251	1.5708	0	0
0.18	0.100328	1.40306	1.48927	0.680625	-0.230444	1.02383	0.296671	-0.0154941	0.0414567	0.441937	-0.1148	0	0	0.157046	-0.0277351	-0.0568584	0.263811	-0.220672	0	0	-0.265472	-0.0170704	0.0153386	-0.0734769	-0.326749	0.0286201	1.19009	1.29293	0	0	-0.0886192	-0.0955791	-0.311357	1.20368	1.5708	0	0
0.19	0.101124	1.4019	1.48871	0.680326	-0.230544	1.02385	0.29736	-0.0155401	0.0415202	0.441066	-0.115381	0	0	0.15764	-0.0276367	-0.0565434	0.262049	-0.221793	0	0	-0.264962	-0.0175817	0.0151117	-0.0638169	-0.329693	0.0322382	1.18882	1.28826	0	0	-0.0805734	-0.100636	-0.303589	1.20435	1.5708	0	0
0.2	0.101141	1.40058	1.48886	0.680027	-0.23066	1.02388	0.298716	-0.0162268	0.0408003	0.440606	-0.116543	0	0	0.158452	-0.0273873	-0.0567411	0.260109	-0.223171	0	0	-0.264188	-0.0181556	0.0150075	-0.0538566	-0.332509	0.0358717	1.18718	1.28245	0	0	-0.071979	-0.105698	-0.295739	1.20443	1.5708	0	0
0.21	0.100272	1.39906	1.48981	0.679715	-0.230824	1.02392	0.300486	-0.0173471	0.0398692	0.440156	-0.117821	0	0	0.159521	-0.0269708	-0.0573492	0.258065	-0.224769	0	0	-0.263209	-0.0187935	0.0150181	-0.0434065	-0.335403	0.0400735	1.18492	1.2753	0	0	-0.0628155	-0.111039	-0.287316	1.204	1.5708	0	0
0.22	0.099617	1.39766	1.4907	0.679373	-0.231034	1.02395	0.301786	-0.0180248	0.0388031	0.439116	-0.118631	0	0	0.160584	-0.0264918	-0.0574514	0.256313	-0.225939	0	0	-0.262463	-0.0193835	0.0148792	-0.0323635	-0.338619	0.0449771	1.18225	1.26743	0	0	-0.0532815	-0.116114	-0.278999	1.20358	1.5708	0	0
0.23	0.101437	1.39631	1.48893	0.679039	-0.231257	1.02399	0.303097	-0.0183131	0.0379098	0.438345	-0.118799	0	0	0.161824	-0.0265023	-0.0574632	0.255371	-0.226424	0	0	-0.262109	-0.0194374	0.0145825	-0.0206931	-0.341896	0.050145	1.17967	1.25863	0	0	-0.0435751	-0.120096	-0.27235	1.20321	1.5708	0	0
0.24	0.103439	1.39478	1.48689	0.678721	-0.231463	1.02399	0.304455	-0.0184584	0.0368321	0.437412	-0.11982	0	0	0.163072	-0.0265851	-0.0573028	0.254102	-0.226826	0	0	-0.261173	-0.0193823	0.0152123	-0.00947557	-0.344001	0.0528813	1.17622	1.26393	0	0	-0.0327422	-0.124312	-0.264257	1.20132	1.5708	0	0
0.25	0.104846	1.39325	1.48528	0.678439	-0.231658	1.02398	0.305774	-0.0185461	0.0356484	0.43623	-0.120891	0	0	0.164175	-0.0265282	-0.0573294	0.252465	-0.22729	0	0	-0.259877	-0.0195492	0.0168144	0.00132784	-0.34684	0.056193	1.1728	1.26338	0	0	-0.0210106	-0.128429	-0.255373	1.19843	1.5708	0	0
0.26	0.10606	1.39154	1.4838	0.678225	-0.231946	1.02394	0.307379	-0.0184334	0.035144	0.434955	-0.121998	0	0	0.165675	-0.0265317	-0.0569837	0.25118	-0.227992	0	0	-0.258381	-0.0199353	0.0189956	0.0120072	-0.349904	0.0595999	1.16937	1.25997	0	0	-0.00853913	-0.132209	-0.246451	1.19505	1.5708	0	0
0.27	0.105926	1.38951	1.48388	0.678001	-0.232316	1.02389	0.309407	-0.0185326	0.0347843	0.433733	-0.123094	0	0	0.167507	-0.0263142	-0.0557621	0.249584	-0.229032	0	0	-0.256546	-0.0205882	0.0211286	0.0227549	-0.352715	0.0624823	1.16575	1.25446	0	0	0.00457924	-0.136175	-0.237037	1.19102	1.5708	0	0
0.28	0.10488	1.38774	1.48498	0.677724	-0.232684	1.02387	0.311129	-0.0189892	0.0341765	0.432566	-0.124148	0	0	0.168841	-0.0258751	-0.0545981	0.247262	-0.2304	0	0	-0.254951	-0.0213661	0.0232766	0.0336067	-0.355497	0.0653944	1.16173	1.24879	0	0	0.0182409	-0.140583	-0.226787	1.18619	1.5708	0	0
0.29	0.103494	1.38646	1.4867	0.67736	-0.232977	1.02386	0.312138	-0.0198437	0.0328747	0.431093	-0.125079	0	0	0.169829	-0.0252204	-0.0540479	0.245299	-0.231715	0	0	-0.253793	-0.0220438	0.0252876	0.0444394	-0.3587	0.0689647	1.15754	1.24285	0	0	0.0323423	-0.144654	-0.216354	1.18063	1.5708	0	0
0.3	0.102362	1.38522	1.48848	0.676929	-0.233269	1.02384	0.313091	-0.021007	0.0302055	0.429622	-0.1258	0	0	0.170954	-0.0245345	-0.0533386	0.243476	-0.232904	0	0	-0.252932	-0.0224369	0.0265529	0.0558035	-0.361858	0.0729736	1.15346	1.23626	0	0	0.046565	-0.148327	-0.206529	1.17485	1.5708	0	0
0.31	0.102357	1.38407	1.48877	0.676599	-0.233629	1.02383	0.314046	-0.0215644	0.0286525	0.428278	-0.126617	0	0	0.172088	-0.0241705	-0.052808	0.242118	-0.233873	0	0	-0.252093	-0.0227684	0.0289584	0.0671292	-0.365131	0.0766243	1.14919	1.22815	0	0	0.0620808	-0.151798	-0.195835	1.1676	1.5708	0	0
0.32	0.10274	1.38314	1.48828	0.676354	-0.234034	1.02383	0.314922	-0.0217954	0.0280118	0.42708	-0.127472	0	0	0.173008	-0.0239947	-0.0525552	0.241044	-0.23451	0	0	-0.251229	-0.0232353	0.0329272	0.0782265	-0.368993	0.0801031	1.14429	1.2184	0	0	0.0793243	-0.154752	-0.183967	1.15829	1.5708	0	0
0.33	0.103472	1.38239	1.48714	0.676188	-0.234455	1.02383	0.315911	-0.0218838	0.0278843	0.426356	-0.128203	0	0	0.173762	-0.0240264	-0.0528181	0.240029	-0.235147	0	0	-0.250578	-0.0238081	0.0376153	0.0895822	-0.373097	0.083613	1.13877	1.20811	0	0	0.0972058	-0.157366	-0.171871	1.1484	1.5708	0	0
